<svg xmlns="http://www.w3.org/2000/svg" version="1.1" viewBox="0 0 26.458333 26.458333">
  <path
    transform="translate(0,-270.54167)"
    style="stroke-width:0.46853742"
    d="m 23.441818,283.3316 -3.843471,-5.7835 c -0.292836,-0.43926 -0.951717,-0.8053 -1.46418,-0.8053 H 8.2875606 c -0.5124628,0 -1.1713436,0.36604 -1.4641795,0.8053 l -3.843471,5.7835 c -0.1830225,0.25624 -0.2928359,0.69549 -0.2928359,0.98833 v 0 4.72197 c 0,0.98833 0.7686942,1.75702 1.7570153,1.75702 H 22.014243 c 0.951717,0 1.757015,-0.76869 1.757015,-1.75702 v -4.72197 0 c 0,-0.29284 -0.146418,-0.73209 -0.32944,-0.98833 z M 8.617001,279.08548 h 9.187726 l 3.147986,4.68538 h -4.502352 l -1.171343,2.34269 h -4.099703 l -1.171344,-2.34269 H 5.4690152 Z"/>
</svg>
