<svg xmlns="http://www.w3.org/2000/svg" version="1.1" viewBox="0 0 26.458333 26.458333">
  <path
    transform="translate(0,-270.54167)"
    style="font-style:normal;font-variant:normal;font-weight:normal;font-stretch:normal;font-family:'Font Awesome 5 Free';-inkscape-font-specification:'Font Awesome 5 Free';stroke-width:0.5447039"
    d="m 13.229166,273.21721 c -5.8300337,0 -10.553638,4.7236 -10.553638,10.55364 0,5.83003 4.7236043,10.55364 10.553638,10.55364 5.830034,0 10.553639,-4.72361 10.553639,-10.55364 0,-5.83004 -4.723605,-10.55364 -10.553639,-10.55364 z m 0,19.06464 c -4.7236039,0 -8.5109983,-3.7874 -8.5109983,-8.511 0,-4.68105 3.7873944,-8.511 8.5109983,-8.511 4.68105,0 8.510999,3.82995 8.510999,8.511 0,4.7236 -3.829949,8.511 -8.510999,8.511 z m -3.4043991,-9.19188 c 0.7234351,0 1.3617601,-0.59577 1.3617601,-1.36176 0,-0.72344 -0.638325,-1.36176 -1.3617601,-1.36176 -0.7659899,0 -1.3617598,0.63832 -1.3617598,1.36176 0,0.76599 0.5957699,1.36176 1.3617598,1.36176 z m 6.8087991,0 c 0.723435,0 1.36176,-0.59577 1.36176,-1.36176 0,-0.72344 -0.638325,-1.36176 -1.36176,-1.36176 -0.76599,0 -1.36176,0.63832 -1.36176,1.36176 0,0.76599 0.59577,1.36176 1.36176,1.36176 z m 0.17022,3.10651 c -0.893655,1.06388 -2.21286,1.65965 -3.57462,1.65965 -1.404314,0 -2.723519,-0.59577 -3.5746191,-1.65965 -0.3829949,-0.42555 -1.0213198,-0.4681 -1.4468697,-0.12766 -0.42555,0.34044 -0.51066,1.02132 -0.127665,1.44687 1.2766498,1.53198 3.1490698,2.38308 5.1491538,2.38308 1.95753,0 3.82995,-0.8511 5.1066,-2.38308 0.382994,-0.42555 0.340439,-1.10643 -0.127665,-1.44687 -0.42555,-0.34044 -1.063875,-0.29789 -1.404315,0.12766 z"/>
</svg>
