<?xml version="1.0" encoding="UTF-8" standalone="no"?>
<svg xmlns="http://www.w3.org/2000/svg" version="1.1" viewBox="0 0 26.458333 26.458333">
  <path
    transform="translate(0,-270.54167)"
    style="stroke-width:0.52933145"
    d="m 15.875824,287.07917 c 0,0.37218 -0.330832,0.66166 -0.661664,0.66166 h -3.969986 c -0.372186,0 -0.661664,-0.28948 -0.661664,-0.66166 v -1.985 H 2.6425378 v 5.95498 c 0,1.07521 0.9097885,1.98499 1.984993,1.98499 H 21.830803 c 1.03385,0 1.984993,-0.90978 1.984993,-1.98499 v -5.95498 h -7.939972 z m 5.954979,-8.60164 h -3.308322 v -1.98499 c 0,-1.03385 -0.951142,-1.985 -1.984993,-1.985 H 9.9208452 c -1.0752045,0 -1.9849929,0.95115 -1.9849929,1.985 v 1.98499 H 4.6275308 c -1.0752045,0 -1.984993,0.95114 -1.984993,1.98499 v 3.30832 H 23.815796 v -3.30832 c 0,-1.03385 -0.951143,-1.98499 -1.984993,-1.98499 z m -5.954979,0 H 10.58251 v -1.32333 h 5.293314 z"/>
</svg>
