<?xml version="1.0" encoding="UTF-8" standalone="no"?>
<svg xmlns="http://www.w3.org/2000/svg" version="1.1" viewBox="0 0 26.458333 26.458333">
  <path
    transform="translate(0,-270.54167)"
    style="stroke-width:0.5469746"
    d="m 23.111382,286.30805 -1.837493,-1.02557 c 0.213662,-1.02558 0.213662,-2.00843 0,-3.034 l 1.837493,-1.02558 c 0.213662,-0.1282 0.299127,-0.38459 0.213662,-0.59825 -0.470056,-1.53837 -1.281972,-2.90581 -2.307549,-4.05958 -0.17093,-0.17093 -0.427324,-0.21366 -0.640986,-0.0855 l -1.837493,1.02558 c -0.769183,-0.64098 -1.623831,-1.15377 -2.563943,-1.49563 v -2.09389 c 0,-0.21366 -0.17093,-0.42732 -0.427324,-0.47006 -1.581099,-0.38459 -3.162197,-0.34185 -4.657831,0 -0.256394,0.0427 -0.384591,0.2564 -0.384591,0.47006 v 2.09389 c -0.9828453,0.34186 -1.8374931,0.85465 -2.6066761,1.53836 L 6.061158,276.4796 c -0.2136619,-0.12819 -0.4700563,-0.0855 -0.6409858,0.0855 -1.0255774,1.15377 -1.8374929,2.52121 -2.3075492,4.05958 -0.085465,0.21366 0,0.47005 0.213662,0.59825 l 1.8374928,1.02558 c -0.1709296,1.02557 -0.1709296,2.00842 0,3.034 l -1.8374928,1.02557 c -0.213662,0.1282 -0.2991268,0.3846 -0.213662,0.59826 0.4700563,1.53836 1.2819718,2.9058 2.3075492,4.05958 0.1709295,0.17093 0.4273239,0.21366 0.6409858,0.0855 l 1.8374929,-1.02558 c 0.769183,0.64099 1.6238308,1.15378 2.6066761,1.49564 v 2.09388 c 0,0.21367 0.170929,0.42733 0.384591,0.51279 1.581099,0.34186 3.162197,0.29913 4.657831,0 0.256394,-0.0855 0.427324,-0.29912 0.427324,-0.51279 v -2.09388 c 0.940112,-0.34186 1.79476,-0.85465 2.563943,-1.49564 l 1.837493,1.02558 c 0.213662,0.1282 0.470056,0.0855 0.640986,-0.0855 1.06831,-1.15378 1.837493,-2.52122 2.350282,-4.05958 0.04273,-0.21366 -0.04273,-0.47006 -0.256395,-0.59826 z M 13.2402,287.1627 c -1.922958,0 -3.4185915,-1.49563 -3.4185915,-3.41859 0,-1.88022 1.4956335,-3.41859 3.4185915,-3.41859 1.880225,0 3.418591,1.53837 3.418591,3.41859 0,1.92296 -1.538366,3.41859 -3.418591,3.41859 z"/>
</svg>
