<?xml version="1.0" encoding="UTF-8" standalone="no"?>
<svg xmlns="http://www.w3.org/2000/svg" version="1.1" viewBox="0 0 26.458333 26.458333">
  <path
    transform="translate(0,-270.54167)"
    d="m 12.953693,279.82238 -6.7582864,5.58293 v 5.98696 c 0,0.33057 0.2571087,0.58768 0.587677,0.58768 h 4.1137394 c 0.293839,0 0.550947,-0.25711 0.550947,-0.58768 v -3.52606 c 0,-0.29384 0.293839,-0.58768 0.587677,-0.58768 h 2.350709 c 0.330568,0 0.587677,0.29384 0.587677,0.58768 v 3.52606 c 0,0 0,0 0,0 0,0.33057 0.293838,0.58768 0.587677,0.58768 v 0 h 4.150469 c 0.293839,0 0.587677,-0.25711 0.587677,-0.58768 v -6.02369 l -6.795016,-5.5462 c -0.07346,-0.0735 -0.183649,-0.11019 -0.257109,-0.11019 -0.110189,0 -0.220379,0.0367 -0.293838,0.11019 z m 10.688376,3.78317 -3.048574,-2.53436 v -5.06871 c 0,-0.25711 -0.220379,-0.44076 -0.440758,-0.44076 h -2.05687 c -0.257109,0 -0.440758,0.18365 -0.440758,0.44076 v 2.64455 l -3.305683,-2.71801 c -0.257109,-0.22038 -0.771326,-0.3673 -1.138625,-0.3673 -0.330568,0 -0.844785,0.14692 -1.101894,0.3673 l -9.2926435,7.67653 c -0.1101895,0.0735 -0.1836491,0.22038 -0.1836491,0.33057 0,0.11019 0.07346,0.22038 0.1101894,0.29384 l 0.9549752,1.13862 c 0.07346,0.0735 0.2203789,0.14692 0.3305684,0.14692 0.07346,0 0.2203789,-0.0367 0.2938385,-0.11019 l 8.6315071,-7.08885 c 0.07346,-0.0735 0.183649,-0.11019 0.293838,-0.11019 0.07346,0 0.183649,0.0367 0.257109,0.11019 l 8.631507,7.08885 c 0.07346,0.0735 0.220379,0.11019 0.293838,0.11019 0.11019,0 0.257109,-0.0735 0.330569,-0.14692 l 0.954975,-1.13862 c 0.03673,-0.0735 0.110189,-0.18365 0.110189,-0.29384 0,-0.11019 -0.07346,-0.25711 -0.183649,-0.33057 z"
    style="stroke-width:0.47014165"/>
</svg>
