<?xml version="1.0" encoding="UTF-8" standalone="no"?>
<svg xmlns="http://www.w3.org/2000/svg" version="1.1" viewBox="0 0 26.458333 26.458333">
  <path
    transform="translate(0,-270.54167)"
    style="stroke-width:0.46973798"
    d="m 22.707362,274.72413 c -0.22019,-0.44038 -0.807362,-0.47708 -1.06425,-0.0367 -1.137647,1.98171 -3.156052,3.19275 -5.468044,3.19275 h -2.935863 c -3.8900175,0 -7.0460697,3.15605 -7.0460697,7.04607 0,0.25689 0,0.51377 0.036698,0.77066 2.3486901,-1.68812 5.7249315,-3.11935 10.5324065,-3.11935 0.293587,0 0.587173,0.29358 0.587173,0.58717 0,0.33029 -0.293586,0.58717 -0.587173,0.58717 -9.2479666,0 -13.1379845,5.68824 -14.0187432,7.78004 -0.256888,0.62387 0.036698,1.28444 0.6238708,1.54133 0.6238708,0.25689 1.2844398,-0.0367 1.5413278,-0.62387 0.073397,-0.1468 0.7706639,-1.76152 2.6422763,-3.33955 1.2110433,1.61473 3.4496383,3.15605 6.4221993,2.82577 5.76163,-0.40368 9.83514,-5.57814 9.83514,-11.89024 0,-1.83492 -0.403682,-3.74323 -1.100949,-5.32125 z"/>
</svg>
