<?xml version="1.0" encoding="UTF-8" standalone="no"?>
<svg xmlns="http://www.w3.org/2000/svg" version="1.1" viewBox="0 0 26.458333 26.458333">
  <path
    transform="translate(0,-270.54167)"
    d="m 23.22276,279.07234 c 0.78599,-0.78599 0.78599,-2.06839 0,-2.81301 l -2.482072,-2.48207 c -0.744622,-0.78599 -2.027026,-0.78599 -2.813016,0 l -1.902922,1.90292 c -0.165471,0.16547 -0.165471,0.49641 0,0.70325 l 4.591834,4.59184 c 0.20684,0.16547 0.537783,0.16547 0.703254,0 z m -8.811357,-1.77882 -10.8797505,10.87976 -0.8687253,5.00551 c -0.1241037,0.70325 0.4550466,1.2824 1.1583004,1.1583 l 5.0055127,-0.86873 10.8797507,-10.87975 c 0.206839,-0.16547 0.206839,-0.49641 0,-0.70325 l -4.591834,-4.59184 c -0.206839,-0.16547 -0.537782,-0.16547 -0.703254,0 z m -6.6188595,9.92829 c -0.2482073,-0.20684 -0.2482073,-0.57915 0,-0.78599 l 6.3706525,-6.37065 c 0.206839,-0.24821 0.57915,-0.24821 0.78599,0 0.248207,0.20684 0.248207,0.57915 0,0.78599 l -6.3706529,6.37065 c -0.2068394,0.24821 -0.5791503,0.24821 -0.7859896,0 z M 6.3033,290.69672 h 1.985658 v 1.53061 l -2.6889118,0.45504 -1.2824041,-1.2824 0.4550466,-2.68891 H 6.3033 Z"
    style="stroke-width:0.52950877"/>
</svg>
