<?xml version="1.0" encoding="UTF-8" standalone="no"?>
<svg xmlns="http://www.w3.org/2000/svg" version="1.1" viewBox="0 0 26.458333 26.458333">
  <path
    transform="translate(0,-270.54167)"
    style="stroke-width:0.54698128"
    d="m 13.229166,274.88239 c 4.871552,0 8.888446,4.01689 8.888446,8.88845 0,4.91428 -4.016894,8.88844 -8.888446,8.88844 -4.914285,0 -8.8884459,-3.97416 -8.8884459,-8.88844 0,-4.87156 3.9741609,-8.88845 8.8884459,-8.88845 z m 0,-1.70932 c -5.8544091,0 -10.5977624,4.78609 -10.5977624,10.59777 0,5.85441 4.7433533,10.59776 10.5977624,10.59776 5.811676,0 10.597762,-4.74335 10.597762,-10.59776 0,-5.81168 -4.786086,-10.59777 -10.597762,-10.59777 z m 0,2.39305 c -4.5724217,0 -8.2047193,3.67503 -8.2047193,8.20472 0,4.57242 3.6322976,8.20472 8.2047193,8.20472 4.529689,0 8.204719,-3.6323 8.204719,-8.20472 0,-4.52969 -3.67503,-8.20472 -8.204719,-8.20472 z m 0,1.88024 c 0.811925,0 1.538385,0.72646 1.538385,1.53839 0,0.85466 -0.72646,1.53838 -1.538385,1.53838 -0.854658,0 -1.538385,-0.68372 -1.538385,-1.53838 0,-0.81193 0.683727,-1.53839 1.538385,-1.53839 z m 4.999751,4.23056 c -1.196522,0.2564 -2.35031,0.5128 -3.504099,0.641 0.04273,4.31602 0.512795,5.25615 1.068323,6.66633 0.170931,0.3846 -0.04273,0.85466 -0.427329,0.98286 -0.384597,0.17093 -0.854659,-0.0427 -0.982857,-0.42733 -0.384597,-0.94012 -0.72646,-1.75205 -0.982857,-3.3759 h -0.384597 c -0.256397,1.62385 -0.59826,2.43578 -0.982857,3.3759 -0.128198,0.3846 -0.59826,0.59826 -0.982857,0.42733 -0.384596,-0.1282 -0.59826,-0.59826 -0.427329,-0.98286 0.555528,-1.41018 1.02559,-2.35031 1.068323,-6.66633 -1.153788,-0.1282 -2.3075771,-0.3846 -3.5040987,-0.641 -0.3845962,-0.1282 -0.5982608,-0.47006 -0.512795,-0.85465 0.085466,-0.34187 0.4700621,-0.59827 0.8119254,-0.5128 4.1450923,0.98286 5.2988813,0.98286 9.4439733,0 0.341864,-0.0855 0.72646,0.17093 0.811926,0.5128 0.08547,0.38459 -0.128199,0.72645 -0.512795,0.85465 z"/>
</svg>
