<?xml version="1.0" standalone="no"?>
<!DOCTYPE svg PUBLIC "-//W3C//DTD SVG 20010904//EN"
 "http://www.w3.org/TR/2001/REC-SVG-20010904/DTD/svg10.dtd">
<svg version="1.0" xmlns="http://www.w3.org/2000/svg"
 width="700.000000pt" height="700.000000pt" viewBox="0 0 700.000000 700.000000"
 preserveAspectRatio="xMidYMid meet">
<metadata>
Created by potrace 1.11, written by Peter Selinger 2001-2013
</metadata>
<g transform="translate(0.000000,700.000000) scale(0.100000,-0.100000)"
fill="#000000" stroke="none">
<path d="M3325 6634 c-33 -8 -106 -37 -163 -65 -156 -77 -278 -203 -345 -354
-41 -93 -58 -171 -62 -280 -17 -497 420 -863 910 -761 278 58 515 298 566 571
19 105 18 242 -3 330 -37 157 -143 326 -260 414 -74 55 -195 118 -264 137 -81
22 -300 27 -379 8z"/>
<path d="M973 5209 c-24 -4 -60 -16 -80 -26 -75 -35 -159 -142 -169 -215 -2
-15 -6 -41 -8 -57 -14 -105 78 -254 184 -299 55 -23 598 -154 740 -178 14 -2
45 -9 70 -14 25 -5 59 -12 75 -16 17 -3 64 -12 105 -20 83 -16 79 -16 200 -38
114 -20 330 -58 355 -61 11 -1 54 -7 95 -14 41 -6 91 -13 110 -15 62 -8 88
-17 95 -34 7 -18 7 -254 0 -457 -7 -202 -16 -425 -20 -520 -8 -146 -24 -390
-30 -445 -2 -19 -7 -64 -10 -100 -3 -36 -8 -81 -10 -100 -3 -19 -7 -55 -10
-80 -2 -25 -7 -61 -10 -80 -2 -19 -7 -55 -11 -80 -29 -219 -101 -555 -167
-780 -38 -128 -117 -355 -191 -547 -108 -281 -117 -356 -57 -478 78 -159 240
-235 408 -191 134 34 208 110 281 288 46 113 160 409 166 433 2 6 6 17 9 25
54 135 186 622 221 815 17 93 32 182 41 240 11 82 17 105 31 116 15 12 206 20
225 9 12 -8 49 -173 74 -340 40 -260 162 -687 294 -1032 50 -132 137 -339 163
-392 74 -146 277 -212 450 -146 61 24 88 45 146 118 53 68 61 100 57 230 -4
125 -1 112 -98 357 -109 275 -217 611 -252 783 -22 111 -75 397 -80 432 -26
201 -46 358 -50 410 -2 19 -6 71 -10 115 -3 44 -8 96 -10 115 -2 19 -7 87 -11
150 -3 63 -8 138 -9 165 -16 260 -31 956 -22 972 7 12 64 23 257 53 225 34
718 125 900 165 8 2 69 14 135 28 311 66 529 123 589 154 57 29 114 107 135
185 44 158 -19 297 -168 371 -96 47 -107 46 -586 -58 -111 -24 -283 -61 -330
-71 -11 -2 -31 -6 -45 -9 -14 -3 -36 -7 -50 -10 -14 -3 -36 -7 -50 -10 -14 -3
-36 -8 -50 -11 -14 -3 -36 -7 -50 -10 -14 -2 -45 -9 -70 -14 -25 -6 -61 -12
-80 -15 -19 -2 -84 -13 -145 -24 -108 -19 -147 -26 -222 -36 -21 -3 -67 -10
-103 -15 -66 -10 -98 -13 -225 -25 -38 -4 -81 -9 -95 -12 -56 -13 -885 -11
-1010 2 -69 7 -154 16 -190 19 -36 4 -76 9 -90 11 -14 3 -45 7 -70 10 -25 3
-70 9 -100 15 -30 5 -71 11 -90 14 -19 3 -48 8 -65 11 -16 3 -66 12 -110 20
-44 8 -95 17 -113 20 -18 3 -151 30 -295 60 -249 51 -328 68 -547 115 -247 53
-290 59 -347 49z"/>
</g>
</svg>
