<svg xmlns="http://www.w3.org/2000/svg" version="1.1" viewBox="0 0 26.458333 26.458333">
  <path
    transform="translate(0,-270.54167)"
    style="font-style:normal;font-variant:normal;font-weight:normal;font-stretch:normal;font-family:'Font Awesome 5 Free';-inkscape-font-specification:'Font Awesome 5 Free';stroke-width:0.52933145"
    d="m 10.086261,285.09417 c 0.248124,0 0.496248,-0.20677 0.496248,-0.49625 v -1.65416 c 0,-0.24812 -0.248124,-0.49624 -0.496248,-0.49624 H 8.4321002 c -0.2894782,0 -0.4962483,0.24812 -0.4962483,0.49624 v 1.65416 c 0,0.28948 0.2067701,0.49625 0.4962483,0.49625 z m 4.466234,-0.49625 v -1.65416 c 0,-0.24812 -0.248124,-0.49624 -0.496248,-0.49624 h -1.654161 c -0.289478,0 -0.496248,0.24812 -0.496248,0.49624 v 1.65416 c 0,0.28948 0.20677,0.49625 0.496248,0.49625 h 1.654161 c 0.248124,0 0.496248,-0.20677 0.496248,-0.49625 z m 3.969986,0 v -1.65416 c 0,-0.24812 -0.248124,-0.49624 -0.496248,-0.49624 h -1.654161 c -0.289478,0 -0.496248,0.24812 -0.496248,0.49624 v 1.65416 c 0,0.28948 0.20677,0.49625 0.496248,0.49625 h 1.654161 c 0.248124,0 0.496248,-0.20677 0.496248,-0.49625 z m -3.969986,3.96999 v -1.65416 c 0,-0.24812 -0.248124,-0.49625 -0.496248,-0.49625 h -1.654161 c -0.289478,0 -0.496248,0.24813 -0.496248,0.49625 v 1.65416 c 0,0.28948 0.20677,0.49625 0.496248,0.49625 h 1.654161 c 0.248124,0 0.496248,-0.20677 0.496248,-0.49625 z m -3.969986,0 v -1.65416 c 0,-0.24812 -0.248124,-0.49625 -0.496248,-0.49625 H 8.4321002 c -0.2894782,0 -0.4962483,0.24813 -0.4962483,0.49625 v 1.65416 c 0,0.28948 0.2067701,0.49625 0.4962483,0.49625 h 1.6541608 c 0.248124,0 0.496248,-0.20677 0.496248,-0.49625 z m 7.939972,0 v -1.65416 c 0,-0.24812 -0.248124,-0.49625 -0.496248,-0.49625 h -1.654161 c -0.289478,0 -0.496248,0.24813 -0.496248,0.49625 v 1.65416 c 0,0.28948 0.20677,0.49625 0.496248,0.49625 h 1.654161 c 0.248124,0 0.496248,-0.20677 0.496248,-0.49625 z m 3.969986,-10.75205 c 0,-1.0752 -0.909789,-1.98499 -1.984993,-1.98499 h -1.984993 v -2.15041 c 0,-0.24812 -0.248124,-0.49625 -0.496248,-0.49625 h -1.654161 c -0.289478,0 -0.496248,0.24813 -0.496248,0.49625 v 2.15041 h -5.293315 v -2.15041 c 0,-0.24812 -0.248124,-0.49625 -0.496248,-0.49625 H 8.4321002 c -0.2894782,0 -0.4962483,0.24813 -0.4962483,0.49625 v 2.15041 H 5.950859 c -1.1165585,0 -1.9849929,0.90979 -1.9849929,1.98499 v 14.55662 c 0,1.11656 0.8684344,1.98499 1.9849929,1.98499 h 14.556615 c 1.075204,0 1.984993,-0.86843 1.984993,-1.98499 z m -1.984993,14.3085 c 0,0.16541 -0.124062,0.24812 -0.248124,0.24812 H 6.1989831 c -0.1654161,0 -0.2481241,-0.0827 -0.2481241,-0.24812 v -12.3235 h 14.556615 z"/>
</svg>
