<svg xmlns="http://www.w3.org/2000/svg" version="1.1" viewBox="0 0 26.458333 26.458333">
  <path
    transform="translate(0,-270.54167)"
    style="stroke-width:0.52933145"
    d="m 23.402255,281.08283 c -0.951142,0.74437 -2.150409,1.65416 -6.368518,4.71436 -0.827081,0.62031 -2.35718,1.98499 -3.80457,1.98499 -1.488745,0 -2.97749,-1.36468 -3.845924,-1.98499 -4.21811,-3.0602 -5.4173766,-3.96999 -6.368519,-4.71436 -0.1654161,-0.12406 -0.3721862,0 -0.3721862,0.20677 v 8.43622 c 0,1.11656 0.8684344,1.985 1.984993,1.985 H 21.830803 c 1.075204,0 1.984993,-0.86844 1.984993,-1.985 v -8.43622 c 0,-0.20677 -0.248124,-0.33083 -0.413541,-0.20677 z m -10.173088,5.33467 c 0.951142,0.0413 2.315825,-1.19927 3.018843,-1.69551 5.500085,-3.96999 5.913625,-4.34218 7.154245,-5.33467 0.248125,-0.16542 0.413541,-0.4549 0.413541,-0.78573 v -0.78573 c 0,-1.0752 -0.909789,-1.98499 -1.984993,-1.98499 H 4.6275308 c -1.1165586,0 -1.984993,0.90979 -1.984993,1.98499 v 0.78573 c 0,0.33083 0.1240621,0.62031 0.3721862,0.78573 1.2406206,0.99249 1.6541608,1.36468 7.154245,5.33467 0.703019,0.49624 2.067701,1.73686 3.060198,1.69551 z"/>
</svg>
