<svg xmlns="http://www.w3.org/2000/svg" version="1.1" viewBox="0 0 26.458333 26.458333">
  <path
    transform="translate(0,-270.54167)"
    style="stroke-width:0.4704985"
    d="m 13.229166,275.53711 c -5.8812313,0 -10.5862164,4.74174 -10.5862164,10.58621 0,1.94816 0.5146077,3.78605 1.4335501,5.32987 0.1837885,0.36758 0.5881232,0.55136 0.9924578,0.55136 H 21.352617 c 0.404335,0 0.808669,-0.18378 0.992458,-0.55136 0.918942,-1.54382 1.470308,-3.38171 1.470308,-5.32987 0,-5.84447 -4.741743,-10.58621 -10.586217,-10.58621 z m 0,2.35249 c 0.514608,0 0.9557,0.40433 1.102731,0.88218 -0.03676,0.0735 -0.110273,0.14703 -0.147031,0.25731 l -0.330819,0.99246 c -0.183788,0.14703 -0.404335,0.22054 -0.624881,0.22054 -0.661638,0 -1.176246,-0.51461 -1.176246,-1.17624 0,-0.62489 0.514608,-1.17625 1.176246,-1.17625 z m -7.0574776,10.58622 c -0.6616385,0 -1.1762462,-0.51461 -1.1762462,-1.17625 0,-0.62488 0.5146077,-1.17625 1.1762462,-1.17625 0.6248809,0 1.1762463,0.55137 1.1762463,1.17625 0,0.66164 -0.5513654,1.17625 -1.1762463,1.17625 z m 1.7643695,-5.88124 c -0.6616386,0 -1.1762463,-0.5146 -1.1762463,-1.17624 0,-0.62488 0.5146077,-1.17625 1.1762463,-1.17625 0.6248808,0 1.1762463,0.55137 1.1762463,1.17625 0,0.66164 -0.5513655,1.17624 -1.1762463,1.17624 z m 9.0423931,-2.64655 -2.242219,6.76342 c 0.514607,0.44109 0.845427,1.06597 0.845427,1.76437 0,0.44109 -0.147031,0.84542 -0.33082,1.17624 h -4.080104 c -0.183788,-0.33082 -0.294061,-0.73515 -0.294061,-1.17624 0,-1.21301 0.9557,-2.24222 2.168704,-2.31574 l 2.278977,-6.76342 c 0.147031,-0.47785 0.624881,-0.73515 1.102731,-0.55136 0.47785,0.14703 0.698396,0.66164 0.551365,1.10273 z m 0.551366,2.09519 0.551365,-1.69086 c 0.147031,-0.0735 0.294062,-0.0735 0.441092,-0.0735 0.624881,0 1.176247,0.51461 1.176247,1.17625 0,0.62488 -0.551366,1.17624 -1.176247,1.17624 -0.441092,-0.0368 -0.771911,-0.2573 -0.992457,-0.58812 z m 2.756827,6.4326 c -0.661639,0 -1.176246,-0.51461 -1.176246,-1.17625 0,-0.62488 0.514607,-1.17625 1.176246,-1.17625 0.624881,0 1.176246,0.55137 1.176246,1.17625 0,0.66164 -0.551365,1.17625 -1.176246,1.17625 z"/>
</svg>
