<svg xmlns="http://www.w3.org/2000/svg" version="1.1" viewBox="0 0 26.458333 26.458333">
  <path
    transform="translate(0,-270.54167)"
    style="stroke-width:0.46853742"
    d="m 22.892751,276.7428 h -3.806867 v -1.46418 c 0,-0.47586 -0.402649,-0.87851 -0.878508,-0.87851 H 8.2509561 c -0.5124628,0 -0.8785077,0.40265 -0.8785077,0.87851 v 1.46418 H 3.5655819 c -0.5124629,0 -0.8785077,0.40265 -0.8785077,0.8785 v 2.04986 c 0,1.31776 0.8052987,2.67212 2.2328737,3.69705 1.1713435,0.8419 2.562314,1.35436 4.0264935,1.53739 1.1713436,1.90343 2.5257096,2.67212 2.5257096,2.67212 v 2.63553 H 9.7151356 c -1.3177615,0 -2.3426872,0.76869 -2.3426872,2.04985 v 0.43925 c 0,0.25623 0.1830225,0.43926 0.4392539,0.43926 H 18.64663 c 0.219627,0 0.439254,-0.18303 0.439254,-0.43926 v -0.43925 c 0,-1.28116 -1.06153,-2.04985 -2.342687,-2.04985 h -1.757015 v -2.63553 c 0,0 1.317761,-0.76869 2.489105,-2.67212 1.464179,-0.18303 2.85515,-0.69549 4.026493,-1.53739 1.427575,-1.02493 2.269478,-2.37929 2.269478,-3.69705 v -2.04986 c 0,-0.47585 -0.402649,-0.8785 -0.878507,-0.8785 z m -16.5818327,4.72198 c -0.9151121,-0.62228 -1.281157,-1.35437 -1.281157,-1.79362 v -0.58568 h 2.3426871 c 0.036605,1.20795 0.219627,2.26948 0.4758584,3.18459 -0.5856718,-0.21962 -1.0981346,-0.47585 -1.5373885,-0.80529 z m 15.1176527,-1.79362 c 0,0.62227 -0.658881,1.35436 -1.317761,1.79362 -0.439254,0.32944 -0.951717,0.58567 -1.537389,0.80529 0.256232,-0.91511 0.439254,-1.97664 0.475859,-3.18459 h 2.379291 z"/>
</svg>
