<svg xmlns="http://www.w3.org/2000/svg" version="1.1" viewBox="0 0 26.458333 26.458333">
  <path
    transform="translate(0,-270.54167)"
    style="stroke-width:0.52933145"
    d="m 22.575175,285.05282 c 0.372186,-0.62031 0.578957,-1.28198 0.578957,-2.0677 0,-1.81958 -1.571453,-3.51509 -3.556446,-3.51509 h -1.530099 c 0.20677,-0.53761 0.372186,-1.15792 0.372186,-1.94364 0,-3.01885 -1.571452,-4.34218 -3.928631,-4.34218 -2.56395,0 -2.398534,3.92864 -2.97749,4.50759 -0.951142,0.95115 -2.0677008,2.77072 -2.8534272,3.43239 H 4.6275309 c -0.7443723,0 -1.3233286,0.62031 -1.3233286,1.32333 v 9.92496 c 0,0.74437 0.5789563,1.32333 1.3233286,1.32333 h 2.6466573 c 0.5789562,0 1.1165585,-0.41354 1.2406205,-0.95114 1.8609313,0.0414 3.1429053,1.6128 7.3610153,1.6128 0.330832,0 0.661664,0 0.951143,0 3.184259,0 4.590296,-1.6128 4.63165,-3.92863 0.578956,-0.74437 0.868434,-1.77822 0.744372,-2.77072 0.41354,-0.74437 0.537602,-1.65416 0.372186,-2.6053 z m -2.563949,2.23312 c 0.537602,0.86843 0.04135,2.02634 -0.578956,2.39853 0.330832,1.98499 -0.744373,2.68801 -2.191763,2.68801 h -1.571453 c -2.936135,0 -4.879774,-1.5301 -7.0715372,-1.5301 v -7.7332 H 9.011057 c 1.199267,0 2.812073,-2.89478 3.928632,-4.01134 1.157912,-1.15791 0.785726,-3.14291 1.571453,-3.92863 1.943638,0 1.943638,1.36468 1.943638,2.35718 0,1.6128 -1.157912,2.35718 -1.157912,3.92863 h 4.300818 c 0.868434,0 1.530099,0.78573 1.571453,1.57145 0,0.74437 -0.537603,1.5301 -0.951143,1.5301 0.578956,0.62031 0.703018,1.90228 -0.20677,2.72937 z m -13.06787,3.76321 c 0,0.57896 -0.4548942,0.9925 -0.9924965,0.9925 -0.5789562,0 -0.9924964,-0.41354 -0.9924964,-0.9925 0,-0.5376 0.4135402,-0.9925 0.9924964,-0.9925 0.5376023,0 0.9924965,0.4549 0.9924965,0.9925 z"/>
</svg>
