<svg xmlns="http://www.w3.org/2000/svg" version="1.1" viewBox="0 0 26.458333 26.458333">
  <path
    transform="translate(0,-270.54167)"
    style="stroke-width:0.5292204"
    d="m 22.056399,289.88994 -4.837406,-7.81427 v -6.24315 h 0.330763 c 0.537489,0 0.992288,-0.41345 0.992288,-0.99228 v -0.66153 c 0,-0.53749 -0.454799,-0.99229 -0.992288,-0.99229 H 8.9499238 c -0.5788348,0 -0.9922883,0.4548 -0.9922883,0.99229 v 0.66153 c 0,0.57883 0.4134535,0.99228 0.9922883,0.99228 h 0.3307628 v 6.24315 l -4.8787509,7.81427 c -1.1990151,1.94323 0.2067267,4.4653 2.4807208,4.4653 H 19.575678 c 2.273994,0 3.679736,-2.52207 2.480721,-4.4653 z m -12.4036043,-3.47301 2.0259223,-3.18359 c 0.124036,-0.20673 0.206726,-0.49614 0.206726,-0.78556 v -6.61526 h 2.646103 v 6.61526 c 0,0.28942 0.124036,0.57883 0.248072,0.78556 l 1.984576,3.18359 z"/>
</svg>
